<svg width="24" height="26" viewBox="0 0 24 26" fill="none" xmlns="http://www.w3.org/2000/svg">
<path d="M21.6832 26H2.75311C2.25121 25.9995 1.77001 25.7886 1.41511 25.4136C1.06021 25.0387 0.860609 24.5303 0.860107 24V10C0.860609 9.46973 1.06021 8.96133 1.41511 8.58637C1.77001 8.21141 2.25121 8.00053 2.75311 8H21.6832C22.1851 8.00053 22.6663 8.21141 23.0212 8.58637C23.3761 8.96133 23.5757 9.46973 23.5762 10V24C23.5757 24.5303 23.3761 25.0387 23.0212 25.4136C22.6663 25.7886 22.1851 25.9995 21.6832 26ZM2.75311 10V24H21.6832V10H2.75311ZM2.75311 4H21.6832V6H2.75311V4ZM4.64612 0H19.7901V2H4.64612V0Z" fill="white"/>
</svg>
