<svg width="54" height="42" viewBox="0 0 54 42" fill="none" xmlns="http://www.w3.org/2000/svg">
<path d="M44.3664 10.2958C44.3664 9.37307 45.1091 8.62693 46.0277 8.62693C46.9462 8.62693 47.6889 9.37307 47.6889 10.2958V31.7086C47.6889 32.6313 46.9462 33.3775 46.0277 33.3775C45.1091 33.3775 44.3664 32.6313 44.3664 31.7086V10.2958ZM0 14.0486C0 13.1258 0.742736 12.3797 1.66127 12.3797C2.5798 12.3797 3.32254 13.1258 3.32254 14.0486V27.9514C3.32254 28.8742 2.5798 29.6203 1.66127 29.6203C0.742736 29.6203 0 28.8742 0 27.9514V14.0486ZM6.33743 10.2958C6.33743 9.37307 7.08017 8.62693 7.9987 8.62693C8.91723 8.62693 9.65997 9.37307 9.65997 10.2958V31.7086C9.65997 32.6313 8.91723 33.3775 7.9987 33.3775C7.08017 33.3775 6.33743 32.6313 6.33743 31.7086V10.2958ZM12.7012 6.13687C12.7012 5.21854 13.4352 4.47682 14.3361 4.47682C15.2415 4.47682 15.971 5.21854 15.971 6.13687V35.8675C15.971 36.7859 15.2371 37.5276 14.3361 37.5276C13.4308 37.5276 12.7012 36.7859 12.7012 35.8675V6.13687ZM19.0123 1.66887C19.0123 0.746137 19.755 0 20.6736 0C21.5921 0 22.3348 0.746137 22.3348 1.66887V40.3311C22.3348 41.2539 21.5921 42 20.6736 42C19.755 42 19.0123 41.2539 19.0123 40.3311V1.66887ZM38.029 14.0486C38.029 13.1258 38.7717 12.3797 39.6902 12.3797C40.6088 12.3797 41.3515 13.1258 41.3515 14.0486V27.9514C41.3515 28.8742 40.6088 29.6203 39.6902 29.6203C38.7717 29.6203 38.029 28.8742 38.029 27.9514V14.0486ZM31.6915 10.2958C31.6915 9.37307 32.4343 8.62693 33.3528 8.62693C34.2713 8.62693 35.0141 9.37307 35.0141 10.2958V31.7086C35.0141 32.6313 34.2713 33.3775 33.3528 33.3775C32.4343 33.3775 31.6915 32.6313 31.6915 31.7086V10.2958ZM25.3761 6.13687C25.3761 5.21854 26.11 4.47682 27.011 4.47682C27.9163 4.47682 28.6459 5.21854 28.6459 6.13687V35.8675C28.6459 36.7859 27.9119 37.5276 27.011 37.5276C26.1056 37.5276 25.3761 36.7859 25.3761 35.8675V6.13687ZM50.7302 6.13687C50.7302 5.21854 51.4641 4.47682 52.3651 4.47682C53.2705 4.47682 54 5.21854 54 6.13687V35.8675C54 36.7859 53.2661 37.5276 52.3651 37.5276C51.4598 37.5276 50.7302 36.7859 50.7302 35.8675V6.13687Z" fill="#009CF4"/>
</svg>
