<svg width="28" height="28" viewBox="0 0 28 28" fill="none" xmlns="http://www.w3.org/2000/svg">
<path d="M28 26.586L20.448 19.034C22.2628 16.8553 23.1678 14.0608 22.9747 11.2319C22.7816 8.40296 21.5052 5.75738 19.4112 3.84551C17.3172 1.93363 14.5667 0.902668 11.732 0.96708C8.89717 1.03149 6.19635 2.18632 4.19133 4.19133C2.18632 6.19635 1.03149 8.89717 0.96708 11.732C0.902668 14.5667 1.93363 17.3172 3.84551 19.4112C5.75738 21.5052 8.40296 22.7816 11.2319 22.9747C14.0608 23.1678 16.8553 22.2628 19.034 20.448L26.586 28L28 26.586ZM2.99999 12C2.99999 10.22 3.52783 8.4799 4.51677 6.99986C5.5057 5.51982 6.91131 4.36627 8.55584 3.68508C10.2004 3.00389 12.01 2.82566 13.7558 3.17293C15.5016 3.52019 17.1053 4.37736 18.364 5.63603C19.6226 6.89471 20.4798 8.49835 20.8271 10.2442C21.1743 11.99 20.9961 13.7996 20.3149 15.4441C19.6337 17.0887 18.4802 18.4943 17.0001 19.4832C15.5201 20.4722 13.78 21 12 21C9.61386 20.9973 7.32621 20.0483 5.63896 18.361C3.9517 16.6738 3.00264 14.3861 2.99999 12Z" fill="white" fill-opacity="0.25"/>
</svg>
