<svg width="34" height="34" viewBox="0 0 34 34" fill="none" xmlns="http://www.w3.org/2000/svg">
<path d="M13.5714 1V5.57143L11.2857 6.71429L7.85714 3.28571L3.28571 7.85714L6.71429 11.2857L5.57143 13.5714H1V20.4286H5.57143L6.71429 22.7143L3.28571 26.1429L7.85714 30.7143L11.2857 27.2857L13.5714 28.4286V33H20.4286V28.4286L22.7143 27.2857L26.1429 30.7143L30.7143 26.1429L27.2857 22.7143L28.4286 20.4286H33V13.5714H28.4286L27.2857 11.2857L30.7143 7.85714L26.1429 3.28571L22.7143 6.71429L20.4286 5.57143V1H13.5714Z" stroke="white" stroke-width="2" stroke-linecap="round" stroke-linejoin="round"/>
<path d="M17 21.5714C19.5247 21.5714 21.5714 19.5247 21.5714 17C21.5714 14.4753 19.5247 12.4286 17 12.4286C14.4753 12.4286 12.4286 14.4753 12.4286 17C12.4286 19.5247 14.4753 21.5714 17 21.5714Z" stroke="white" stroke-width="2" stroke-linecap="round" stroke-linejoin="round"/>
</svg>
